# xmcd CD database file
#
# Track frame offsets:
#	150
#	22384
#	38432
#	53135
#	69016
#	86586
#	103032
#	119786
#	135023
#	153579
#	170460
#	183689
#
# Disc length: 2606 seconds
#
# Revision: 1
# Processed by: cddbd v1.5.1PL0 Copyright (c) Steve Scherf et al.
# Submitted via: CDex 1.51
#
DISCID=9c0a2c0c
DTITLE=Clementine - SOLEIL
DYEAR=2004
DGENRE=Jazz
TTITLE0=Season in the sun
TTITLE1=Sunny side of the street
TTITLE2=La mer 
TTITLE3=L'ete 42
TTITLE4=Ah si j'avais!
TTITLE5=La-bas
TTITLE6=Besame mucho
TTITLE7=On me dit que
TTITLE8=Garasugoshi ni kieta natsu
TTITLE9=Viva
TTITLE10=6P.M.(J-WAVE MIX)
TTITLE11=Les Champs-Elysees(SWEET MIX)
EXTD=YEAR: 2004
EXTT0=
EXTT1=
EXTT2=
EXTT3=
EXTT4=
EXTT5=
EXTT6=
EXTT7=
EXTT8=
EXTT9=
EXTT10=
EXTT11=
PLAYORDER=
